<svg xmlns="http://www.w3.org/2000/svg" viewBox="0 0 64 64" fill="none">
  <rect width="64" height="64" rx="12" fill="#0A0F1A"/>
  <g transform="translate(10, 14)" fill="white">
    <!-- Open passport book -->
    <path d="M22 2C22 2 18 0 12 0C6 0 2 2 2 2V32C2 32 6 30 12 30C18 30 22 32 22 32V2Z" fill="white" fill-opacity="0.9"/>
    <path d="M22 2C22 2 26 0 32 0C38 0 42 2 42 2V32C42 32 38 30 32 30C26 30 22 32 22 32V2Z" fill="white" fill-opacity="0.9"/>
    <!-- Fingerprint on left page -->
    <path d="M12 8C9.8 8 8 9.8 8 12C8 14.2 9.8 16 12 16" stroke="#0A0F1A" stroke-width="1.5" fill="none" stroke-linecap="round"/>
    <path d="M12 10C10.9 10 10 10.9 10 12C10 13.1 10.9 14 12 14" stroke="#0A0F1A" stroke-width="1.5" fill="none" stroke-linecap="round"/>
    <line x1="12" y1="8" x2="12" y2="16" stroke="#0A0F1A" stroke-width="1.5" stroke-linecap="round"/>
    <!-- Lines on right page -->
    <line x1="26" y1="10" x2="38" y2="10" stroke="#0A0F1A" stroke-width="1.5" stroke-linecap="round"/>
    <line x1="26" y1="14" x2="36" y2="14" stroke="#0A0F1A" stroke-width="1.5" stroke-linecap="round"/>
    <line x1="26" y1="18" x2="34" y2="18" stroke="#0A0F1A" stroke-width="1.5" stroke-linecap="round"/>
    <!-- Globe icon -->
    <circle cx="36" cy="4" r="3" stroke="#0A0F1A" stroke-width="1" fill="none"/>
    <line x1="33" y1="4" x2="39" y2="4" stroke="#0A0F1A" stroke-width="0.8"/>
    <ellipse cx="36" cy="4" rx="1.5" ry="3" stroke="#0A0F1A" stroke-width="0.8" fill="none"/>
  </g>
</svg>
